<svg class="icon" viewBox="0 0 1024 1024" xmlns="http://www.w3.org/2000/svg" width="128" height="128"><defs><style/></defs><path d="M615.066 880.333V836.15c51.546-18.41 95.73-47.864 132.548-84.684 62.592-58.91 99.411-147.275 99.411-239.322 0-95.729-36.818-180.412-99.41-243.004-36.82-36.819-81.002-62.592-132.549-81.002v-44.182c62.592 18.409 117.82 51.546 162.003 95.729 69.955 69.955 114.139 165.684 114.139 272.46 0 106.774-44.183 202.502-114.139 272.459-44.182 44.182-99.41 77.319-162.003 95.728zm0-169.366c3.682 0 7.364-3.682 11.046-3.682 14.727-14.728 25.773-29.455 33.137-47.864 7.363-18.41 11.045-36.819 11.045-55.228 0-22.091-3.682-40.5-11.045-55.228-7.364-18.41-18.41-33.137-29.455-47.864h-3.682c-3.682-3.682-7.364-11.046-11.046-14.728v51.546c3.682 7.364 11.046 14.728 11.046 22.091h3.682c3.682 14.728 7.364 29.455 7.364 44.183s-3.682 29.455-7.364 40.5h-3.682c0 7.364-7.364 18.41-11.046 22.091v44.183zm0-357.143l11.046-11.045c7.364-7.364 7.364-18.41 0-25.773-3.682-3.682-7.364-3.682-11.046-3.682v40.5zm0-209.866v44.182c-18.409-3.682-36.818-11.046-55.227-11.046v-44.182c18.409 0 36.818 3.682 55.227 11.046zm0 169.366v40.5c-3.681 7.364-7.363 14.728-11.045 25.773-7.364 11.046-11.046 25.773-11.046 40.5s3.682 29.456 11.046 44.183l11.045 22.091v51.546c-3.681-3.682-7.363-11.045-11.045-14.727-14.728-11.046-25.773-29.455-33.137-47.864l-11.045-44.183v-18.409c3.681-18.41 7.363-33.137 11.045-47.864 7.364-18.41 18.41-33.137 33.137-47.864 3.682-3.682 7.364-3.682 11.045-3.682zm0 353.46v44.183c-3.681 0-7.363-3.682-11.045-3.682-7.364-7.364-7.364-18.41 0-25.773 3.682-3.682 7.364-7.364 11.045-14.728zm0 169.367v44.182c-18.409 3.682-36.818 11.045-55.227 11.045v-44.182l55.227-11.045zM559.84 611.556v-18.409 18.409zm-106.775 0v-7.363-11.046 18.41zm106.775-478.644v44.182c-14.728-3.681-33.137-7.363-51.546-7.363-18.41 0-36.819 3.682-55.228 7.363v-44.182c18.409-3.682 36.818-3.682 55.228-3.682 18.409 0 36.818 0 51.546 3.682zm0 279.822V412.734zm0 180.413v18.41c0 14.727-3.682 33.136-11.046 47.864-7.364 18.409-18.41 33.136-29.455 47.864-7.364 3.682-18.41 3.682-25.773 0-3.682-7.364-3.682-18.41 0-25.773 11.046-11.046 22.091-22.091 25.773-36.819 7.364-11.045 7.364-25.773 7.364-40.5s0-29.455-7.364-44.183c-3.682-14.727-14.727-25.773-25.773-36.818-11.045-11.046-22.091-29.455-29.455-47.864-7.363-14.728-11.045-29.455-11.045-44.182v-18.41c0-18.41 3.682-33.136 11.045-47.864 7.364-18.41 18.41-33.137 29.455-47.864 7.364-7.364 18.41-7.364 25.773 0s7.364 18.41 0 25.773c-11.045 7.364-18.41 22.091-25.773 36.819-3.682 11.045-7.364 25.773-7.364 40.5s3.682 29.455 7.364 44.182c7.364 14.728 14.728 25.773 25.773 36.819 11.046 11.045 22.091 29.455 29.455 47.864 7.364 14.726 11.046 29.454 11.046 44.182zm0 254.05v44.181c-14.728 3.682-33.137 3.682-51.546 3.682-18.41 0-36.819 0-55.228-3.682v-44.182c18.409 3.682 36.818 3.682 55.228 3.682 18.409 0 36.818 0 51.546-3.682zM397.836 537.917c7.364 7.364 11.045 14.728 14.727 22.091 3.682 14.728 7.364 29.455 7.364 44.183s-3.682 29.455-7.364 40.5c-3.682 7.364-7.363 18.41-14.727 22.091v44.183c3.682 0 11.045-3.682 11.045-3.682 14.728-14.728 25.773-29.455 33.137-47.864 7.364-14.728 11.046-33.137 11.046-47.865v-18.409c0-14.727-3.682-29.455-11.046-44.182-7.364-18.41-18.41-36.819-33.137-47.864v-3.682l-11.045-11.046v51.546zm0-184.094l11.045-11.045c7.364-7.364 7.364-18.41 0-25.773 0-3.682-7.363-3.682-11.045-3.682v40.5zm55.228-220.912v44.182c-18.41 0-36.819 7.364-55.228 11.046v-44.182c18.41-7.364 36.818-11.046 55.228-11.046zm0 279.822V412.734zm0 434.462v44.182l-55.228-11.045V836.15c18.41 3.682 36.818 11.045 55.228 11.045zM386.79 523.191c3.682 3.682 7.364 11.045 11.046 14.727v-51.546l-11.046-22.09c-7.363-14.728-7.363-29.456-7.363-44.183s0-29.455 7.363-40.5c3.682-11.046 7.364-18.41 11.046-25.773v-40.5c-3.682 0-7.364 0-11.046 3.681-14.727 14.727-25.773 29.455-33.136 47.864-3.682 18.41-11.046 36.819-11.046 55.228s3.682 36.818 11.046 55.228c7.363 18.409 18.409 33.136 33.136 47.864zm11.046 143.593c-3.682 7.364-7.364 11.046-11.046 14.728-7.363 7.363-7.363 18.409 0 25.773 3.682 0 7.364 3.682 11.046 3.682v-44.183zm0-522.826v44.182c-47.864 18.41-95.73 44.182-132.548 81.002-62.592 62.591-99.411 147.275-99.411 243.004 0 92.048 36.818 180.412 99.411 239.322 36.819 36.819 84.684 66.273 132.548 84.684v44.182c-62.592-18.41-117.82-51.546-162.003-95.73-69.955-69.955-114.138-165.684-114.138-272.459s44.182-202.503 114.138-272.46c44.182-44.181 99.41-77.318 162.003-95.727z"/></svg>
