<svg class="icon" viewBox="0 0 1024 1024" xmlns="http://www.w3.org/2000/svg" width="128" height="128"><defs><style/></defs><path d="M857.344 482.464l-90.816-85.728V271.264c0-26.656-20.832-48.288-46.4-48.288-25.568 0-46.4 21.664-46.4 48.288v39.744l-150.112-142.88a17.536 17.536 0 0 0-23.968 0L166.656 482.464c-5.312 4.896-6.912 14.272-4.352 20.96 2.656 6.624 9.088 12.736 16.256 12.736h99.456v203.808l-33.408 35.04a61.728 61.728 0 0 0 0 87.488c11.744 11.744 27.296 18.144 43.872 18.144s32.16-6.4 43.872-18.144l1.856-1.952h393.376a17.664 17.664 0 0 0 17.728-17.568V516.16H845.44c7.232 0 13.536-6.048 16.224-12.736 2.624-6.784.928-16.16-4.32-20.96zM309.088 818.368a28.96 28.96 0 0 1-40.352.032 28.96 28.96 0 0 1 0-41.088l164.896-164.544L427.968 596a100.608 100.608 0 0 1-2.816-54.432c4.16-18.528 12.672-33.792 26.176-47.328a100.8 100.8 0 0 1 71.136-29.472c-13.664 13.952-21.12 31.648-21.12 49.952 0 18.688 6.08 36.736 20.16 50.784 14.08 13.984 33.824 20.832 52.48 20.832 18.304 0 35.2-7.488 48.96-20.896a98.88 98.88 0 0 1-99.84 99.424 102.4 102.4 0 0 1-32.416-5.344l-16.768-5.6-164.832 164.448zM721.792 477.76a17.472 17.472 0 0 0-17.568 17.472V802.08H371.072l111.712-109.76c13.056 4.096 26.592 6.144 40.288 6.144a133.216 133.216 0 0 0 94.688-39.072 133.952 133.952 0 0 0 26.432-150.368l-2.784-6.048-4.448 4.992c-4.928 5.6-12.352 12.288-22.656 21.664-4.32 3.904-8.64 7.808-12.928 11.776-16.128 15.968-39.136 15.776-55.072 0a38.912 38.912 0 0 1-12.16-27.424c0-9.856 4.352-19.616 12.224-27.424 36.032-36.128 35.488-38.432 35.136-40.128l-.48-2.144-1.92-.864a135.296 135.296 0 0 0-56.416-12.352 132.832 132.832 0 0 0-94.592 39.072 133.12 133.12 0 0 0-33.056 134.72l-76 75.84.032-185.44c0-9.6-7.84-17.472-17.568-17.472h-74.112L511.584 212.64l284.288 265.12h-74.08z"/></svg>
