<svg class="icon" viewBox="0 0 1024 1024" xmlns="http://www.w3.org/2000/svg" width="128" height="128"><defs><style/></defs><path d="M736.233 118.192H287.31L62.848 506.971 287.31 895.749h448.923l224.461-388.778-224.46-388.779zM714.634 858.34H308.908L106.046 506.971l202.863-351.368h405.726l202.862 351.369-202.863 351.367z"/><path d="M680.118 521.647c-14.009 0-26.809 5.145-36.64 13.634l-136.372-77.927a93.415 93.415 0 0 0 4.666-29.233 93.632 93.632 0 0 0-3.185-24.258l95.179-47.589c10.092 9.734 23.812 15.732 38.941 15.732 30.992 0 56.115-25.124 56.115-56.115 0-30.992-25.124-56.115-56.115-56.115-30.992 0-56.115 25.124-56.115 56.115 0 2.347.16 4.654.44 6.925l-95.186 47.593c-17.123-21.806-43.725-35.814-73.6-35.814-51.653 0-93.526 41.873-93.526 93.526 0 39.84 24.913 73.855 60.007 87.334l-13.646 81.875c-26.34 4.618-46.362 27.59-46.362 55.253 0 30.992 25.124 56.115 56.115 56.115 30.992 0 56.115-25.125 56.115-56.115 0-21.143-11.697-39.545-28.967-49.113l13.649-81.892c26.642-.949 50.445-13.038 66.891-31.755l136.386 77.934A56.412 56.412 0 0 0 624 577.76c0 30.992 25.124 56.115 56.115 56.115 30.992 0 56.115-25.124 56.115-56.115.002-30.99-25.121-56.114-56.113-56.114z"/></svg>
