<svg class="icon" viewBox="0 0 1025 1024" xmlns="http://www.w3.org/2000/svg" width="128.125" height="128"><defs><style/></defs><path d="M840.083 1024h-652.8c-28.8 0-54.4-19.2-60.8-48L1.683 553.6c-6.4-16 6.4-35.2 22.4-38.4 16-6.4 35.2 6.4 38.4 22.4l124.8 422.4h656l118.4-425.6c6.4-16 22.4-25.6 38.4-22.4 16 6.4 25.6 22.4 22.4 38.4L900.883 976c-6.4 28.8-32 48-60.8 48zm-179.2-832c-3.2 0-9.6 0-12.8-3.2-16-6.4-22.4-25.6-16-41.6l12.8-28.8c6.4-16 25.6-22.4 41.6-16 16 6.4 22.4 25.6 16 41.6l-12.8 28.8c-3.2 9.6-16 19.2-28.8 19.2zm-252.8-12.8h-6.4c-16-3.2-28.8-19.2-25.6-38.4l6.4-32c3.2-16 19.2-28.8 38.4-25.6 16 3.2 28.8 19.2 25.6 38.4l-6.4 32c-3.2 16-16 25.6-32 25.6zM667.283 64h-32c-19.2 0-32-12.8-32-32s12.8-32 32-32h32c19.2 0 32 12.8 32 32s-16 32-32 32zm-156.8 0h-32c-19.2 0-32-12.8-32-32s12.8-32 32-32h32c19.2 0 32 12.8 32 32s-16 32-32 32z"/><path d="M792.083 342.4l-374.4 508.8-48-22.4 6.4-25.6 96-348.8h-128l-12.8-12.8c-6.4-9.6-9.6-19.2-6.4-28.8l25.6-134.4 3.2-16c3.2-16 19.2-28.8 38.4-25.6 16 3.2 28.8 19.2 25.6 38.4l-3.2 16-19.2 99.2h131.2l12.8 12.8c6.4 9.6 9.6 19.2 6.4 32l-64 220.8 224-304h-128l-12.8-16c-6.4-9.6-6.4-22.4-3.2-32l12.8-25.6 6.4-16c6.4-16 25.6-22.4 41.6-16 19.2 3.2 25.6 22.4 19.2 38.4h121.6c12.8 0 25.6 6.4 32 19.2s3.2 25.6-3.2 38.4z"/></svg>
