<svg class="icon" viewBox="0 0 1024 1024" xmlns="http://www.w3.org/2000/svg" width="128" height="128"><defs><style/></defs><path d="M912.305 545.312c-3.291-44.904-11.743-89.559-24.49-129.193-19.523-60.776-48.67-118.79-82.055-163.444-9.15-12.189-26.777-14.978-39.468-6.22-12.69 8.702-15.591 25.632-6.498 37.82 29.927 39.997 56.173 92.488 73.996 147.825 11.463 35.701 19.106 76.143 22.09 117.005 10.877 148.856-52.966 270.464-176.413 339.439-20.223-159.512-149.164-211.556-155.105-213.9-7.92-3.068-16.903-2.565-24.377 1.451-112.263 59.8-144.952 160.124-154.434 216.271-111.092-56.062-178.617-161.604-178.617-283.265 0-81.946 42.534-157.867 130.031-232.057 11.63-9.874 23.484-19.58 35.338-29.287 64.261-52.603 130.755-106.963 164.252-189.717 3.654-8.925 6.834-17.014 9.511-24.322 59.186 39.941 187.291 147.77 228.877 354.055 2.956 14.727 17.85 24.321 33.108 21.476 15.34-2.817 25.38-17.042 22.397-31.74C732.992 192.4 526.482 79.83 502.998 67.837c-.781-.447-1.616-.81-2.454-1.227-14.001-6.387-30.735-.81-37.598 12.522-1.924 3.766-2.843 7.783-2.9 11.77-2.65 10.014-13.666 40.974-16.177 47.473-28.366 70.035-86.631 117.674-148.3 168.129-12.106 9.901-24.18 19.83-36.092 29.9-98.93 83.925-149.08 175.66-149.08 272.696 0 156.583 95.473 290.35 249.155 349.033 3.348 1.283 6.89 1.897 10.403 1.897 5.636 0 11.213-1.59 16.01-4.742 7.782-5.077 12.413-13.583 12.329-22.593-.028-5.522.418-131.646 116.503-202.045 30.652 16.903 110.786 73.216 110.786 201.043 0 9.23 4.88 17.85 12.941 22.814 8.087 4.994 18.24 5.745 26.998 1.896 167.99-73.047 260.254-226.756 246.783-411.092m-440.601-432.29a23.144 23.144 0 0 1-3.32-2.733c1.034 1.004 2.121 1.925 3.32 2.733"/></svg>
