<svg class="icon" viewBox="0 0 1043 1024" xmlns="http://www.w3.org/2000/svg" width="130.375" height="128"><defs><style/></defs><path d="M308.37 731.23V313.062c0-4.934-3.995-8.965-8.964-8.965h-59.172c-4.934 0-8.964 4.03-8.964 8.965V731.82c-22.655 13.134-38.013 37.074-38.013 64.697 0 41.66 34.503 75.468 77.102 75.468 42.564 0 77.101-33.773 77.101-75.468 0-28.075-15.844-52.293-39.09-65.288zM731.82 386.619c-102.535 0-185.682 81.688-185.682 182.417 0 100.763 83.112 182.416 185.683 182.416S917.503 669.8 917.503 569.036c0-100.764-83.112-182.417-185.682-182.417zm.557 323.555c-80.055 0-144.96-63.203-144.96-141.138 0-77.97 64.905-141.139 144.96-141.139 80.054 0 144.96 63.203 144.96 141.139 0 77.935-64.906 141.138-144.96 141.138zM958.782 548.396h83.599v40.167h-83.6v-40.167zM477.271 548.396h41.279v40.167H477.27v-40.167zM711.216 791.619h41.279v80.332h-41.279V791.62zM711.216 266.085h41.279v80.333h-41.279v-80.333zM878.136 740.472l58.513 57.192 29.256-28.596-58.513-57.192zM585.679 397.39l-58.512-57.192-29.257 28.596 58.513 57.192z"/><path d="M499.648 767.366c-4.621-35.372-17.825-67.963-37.074-96.281V186.239c0-.174-.174-.278-.209-.487C460.315 82.87 374.98.035 269.838.035 164.696.035 79.36 82.869 77.31 185.752c0 .174-.209.278-.209.487v484.846c-24.46 35.997-39.089 78.908-39.089 125.433C38.012 922.159 141.8 1024 269.838 1024s231.825-101.84 231.825-227.482c0-8.652-.8-17.13-1.772-25.539l27.276 26.685 58.512-57.192-29.256-28.596-56.775 55.49zm-229.81 180.61c-85.44 0-154.724-67.825-154.724-151.458 0-38.395 15.045-73.036 39.089-99.721V190.095c0-62.96 51.771-114.001 115.635-114.001 63.863 0 115.634 51.042 115.634 114.001v506.736c24.045 26.685 39.09 61.327 39.09 99.722 0 83.598-69.284 151.423-154.724 151.423zM965.905 368.794l-29.256-28.596-58.513 57.192 29.256 28.596z"/></svg>
