<svg class="icon" viewBox="0 0 1024 1024" xmlns="http://www.w3.org/2000/svg" width="128" height="128"><defs><style/></defs><path d="M928 832h-32V384c0-70.4-57.6-128-128-128H576v-64c0-70.4-57.6-128-128-128H192c-70.4 0-128 57.6-128 128v640H32c-17.92 0-32 14.08-32 32s14.08 32 32 32h896c17.92 0 32-14.08 32-32s-14.08-32-32-32zM512 256v576H128V192c0-35.2 28.8-64 64-64h256c35.2 0 64 28.8 64 64v64zm320 576H576V320h192c35.2 0 64 28.8 64 64v448zM416 256H224c-17.92 0-32 14.08-32 32s14.08 32 32 32h192c17.92 0 32-14.08 32-32s-14.08-32-32-32zm0 192H224c-17.92 0-32 14.08-32 32s14.08 32 32 32h192c17.92 0 32-14.08 32-32s-14.08-32-32-32zm0 192H224c-17.92 0-32 14.08-32 32s14.08 32 32 32h192c17.92 0 32-14.08 32-32s-14.08-32-32-32zm320-192h-64c-17.92 0-32 14.08-32 32s14.08 32 32 32h64c17.92 0 32-14.08 32-32s-14.08-32-32-32zm0 192h-64c-17.92 0-32 14.08-32 32s14.08 32 32 32h64c17.92 0 32-14.08 32-32s-14.08-32-32-32z"/></svg>
