<svg class="icon" viewBox="0 0 1024 1024" xmlns="http://www.w3.org/2000/svg" width="128" height="128"><defs><style/></defs><path d="M829.8 1022.8H194.4c-82.5 0-149.5-67.1-149.5-149.5V237.8c0-82.5 67.1-149.5 149.5-149.5h70.4v66.6h-70.4c-45.7 0-82.9 37.2-82.9 82.9v635.4c0 45.7 37.2 82.9 82.9 82.9h635.4c45.7 0 82.9-37.2 82.9-82.9V237.8c0-45.7-37.2-82.9-82.9-82.9h-89.6V88.3h89.6c82.5 0 149.5 67.1 149.5 149.5v635.4c0 82.5-67 149.6-149.5 149.6z"/><path d="M657 67.5c36.7 0 66.5 29.9 66.5 66.5 0 36.7-29.9 66.5-66.5 66.5H367.2c-36.7 0-66.5-29.9-66.5-66.5 0-36.7 29.9-66.5 66.5-66.5H657m0-66.7H367.2C293.7.8 234 60.4 234 134c0 73.5 59.7 133.2 133.2 133.2H657c73.5 0 133.2-59.7 133.2-133.2C790 60.4 730.5.8 657 .8zM356.5 618.9c-8.2 0-16.4-3.1-22.6-9.4l-68.8-68.8c-7.4-7.4-11.5-17.3-11.5-27.8s4.1-20.4 11.5-27.8l68.1-68.1c12.5-12.5 32.8-12.5 45.3 0s12.5 32.8 0 45.3L327.8 513l51.3 51.3c12.5 12.5 12.5 32.8 0 45.3-6.2 6.2-14.4 9.3-22.6 9.3z"/><path d="M594.4 832.3H406.7c-17.7 0-32-14.3-32-32s14.3-32 32-32h187.7c61.8 0 112-50.2 112-112s-50.2-112-112-112H316.7c-17.7 0-32-14.3-32-32s14.3-32 32-32h277.7c97 0 176 79 176 176 0 97.1-78.9 176-176 176z"/></svg>
