<svg class="icon" viewBox="0 0 1024 1024" xmlns="http://www.w3.org/2000/svg" width="128" height="128"><defs><style/></defs><path d="M952.687 182.978c0-23.883-15.01-57.727-86.652-83.322-48.42-17.285-112.349-26.811-179.977-26.811-67.662 0-131.59 9.56-179.976 26.811-71.615 25.624-86.657 59.439-86.657 83.322 0 3.55-.499 7.133.19 10.648-.689 2.213-1.838 4.486-1.838 6.727v104.375c0 3.612.341 7.194.997 10.68a23.2 23.2 0 0 0-.997 6.725v51.222c-31.14-3.145-52.563-4.733-80.429-4.733-67.757 0-131.244 9.56-179.572 26.807-71.616 25.567-86.468 59.381-86.468 83.265 0 3.639 2.338 7.222 3.021 10.71-.683 2.208.932 4.484.932 6.694v104.374c0 3.611.342 7.16 1.031 10.648-.69 2.306-1.03 4.485-1.03 6.694V722.25c0 3.612.34 7.16 1.03 10.682-.69 2.242-1.03 4.48-1.03 6.66v104.376c0 23.883 13.17 57.698 84.756 83.291 48.325 17.28 111.316 26.807 179.073 26.807s131.12-9.558 179.416-26.807c71.615-25.594 86.096-59.409 86.096-83.291V775.34c31.135 3.207 53.494 4.792 81.36 4.792 67.63 0 128.815-9.557 177.235-26.81 71.615-25.596 83.916-59.438 83.916-83.323V565.659c0-2.304-.342-4.58-1.027-6.756a54.38 54.38 0 0 0 1.027-10.62V443.883c0-2.304-.342-4.58-1.027-6.757.685-3.396 1.027-6.884 1.027-10.618V322.133c0-2.333-.342-4.61-1.027-6.757.685-3.426 1.027-6.941 1.027-10.648V200.353c0-2.304 2.46-4.546 1.777-6.727.684-3.42 3.796-7.004 3.796-10.648zM686.058 733.862c-28.212 0-55.77-1.743-81.735-5.169.247-2.114.28-4.262.28-6.443v-68.66c31.135 3.21 53.585 4.795 81.36 4.795 67.568 0 136.322-9.56 184.804-26.84 15.475-5.573 14.073-11.734 45.213-18.428v56.885c0 6.82-16.472 23.914-60.72 39.73-43.498 15.569-106.647 24.13-169.202 24.13zm169.2-145.875c-43.654 15.57-104.403 24.131-166.806 24.131-28.085 0-56.79-1.745-82.918-5.231.219-2.086-.932-4.234-.932-6.449v-68.653c31.135 3.206 53.304 4.792 81.36 4.792 67.538 0 136.26-9.558 184.804-26.81 15.475-5.54 14.073-11.74 45.213-18.402v56.919c0 6.82-16.473 23.887-60.72 39.703zm0-121.779c-43.654 15.565-104.403 24.13-166.806 24.13-27.96 0-56.606-1.775-82.823-5.23.219-2.085-.252-4.238-.252-6.447 0-23.85-8.096-57.7-79.74-83.322-15.883-5.606-45.588-10.463-45.588-14.42v-11.332c0 6.785 17.841 12.953 33.225 18.434 48.324 17.28 108.636 26.807 176.393 26.807 67.724 0 134.607-9.56 182.93-26.807 15.447-5.51 12.24-11.711 43.38-18.434v56.92c.002 6.817-16.47 23.88-60.719 39.701zm-1.401-121.783c-44.495 15.603-106.679 24.165-170.602 24.165-63.99 0-125.238-8.562-169.733-24.165-45.273-15.784-58.752-32.88-58.752-39.697v-56.891c0 6.728 25.874 12.89 41.658 18.435 49.573 17.313 115.117 26.84 184.242 26.84s139.467-9.56 189.037-26.84c15.85-5.573 14.415-11.769 46.272-18.435v56.891c0 6.818-16.847 23.913-62.122 39.697zm-3.364-121.717c-43.593 15.57-101.976 24.103-164.435 24.103-62.492 0-120.908-8.533-164.439-24.103-44.276-15.845-55.984-32.911-55.984-39.696 0-6.851 11.707-23.947 55.984-39.734 43.564-15.57 101.947-24.099 164.469-24.099 62.463 0 120.846 8.529 164.439 24.099 44.248 15.817 55.955 32.91 55.955 39.734-.034 6.785-11.741 23.85-55.99 39.696zM573.464 787.049v56.92c0 6.851-19.152 23.945-63.428 39.7-43.62 15.57-105.742 24.1-168.173 24.1-62.46 0-128.378-8.53-171.97-24.1-44.249-15.755-63.49-32.849-63.49-39.7v-56.858c31.138 6.728 30.667 12.89 46.08 18.402 48.359 17.28 115.118 26.777 182.808 26.777 67.695 0 140.494-9.526 188.818-26.777 15.507-5.54 18.215-11.708 49.355-18.464zm-63.429-25.13c-43.593 15.57-105.71 24.132-168.173 24.132-62.493 0-128.412-8.562-171.97-24.132-44.249-15.817-63.49-32.85-63.49-39.669v-56.918c31.138 6.722 30.667 12.89 46.08 18.4 48.453 17.314 115.24 26.84 182.808 26.84 67.6 0 140.37-9.558 188.818-26.84 15.446-5.51 18.216-11.678 49.355-18.434v56.952c.001 6.82-19.152 23.853-63.428 39.67zm0-121.745c-43.53 15.566-105.648 24.098-168.173 24.098-62.555 0-128.474-8.532-171.943-24.098-44.276-15.849-63.518-32.917-63.518-39.702v-56.92c31.139 6.786 30.73 12.986 46.081 18.464 48.482 17.28 115.275 26.811 182.808 26.811 67.572 0 140.37-9.558 188.818-26.811 15.384-5.478 18.216-11.707 49.355-18.464v56.92c.001 6.785-19.152 23.852-63.428 39.702zm-7.412-121.784c-43.526 15.572-101.942 24.103-164.467 24.103-62.555 0-120.938-8.533-164.436-24.103-44.248-15.815-55.955-32.912-55.955-39.696 0-6.79 11.707-23.884 55.955-39.7 43.53-15.57 101.943-24.132 164.436-24.132s120.908 8.561 164.467 24.131c44.282 15.85 55.99 32.911 55.99 39.7 0 6.785-11.742 23.88-55.99 39.697zm0 0"/></svg>
