<svg class="icon" viewBox="0 0 1024 1024" xmlns="http://www.w3.org/2000/svg" width="128" height="128"><defs><style/></defs><path d="M502.087 149.39a2819.456 2819.456 0 0 0-114.944 152.064c-29.682 42.326-56.32 83.286-79.132 122.17-54.215 92.387-84.125 168.604-84.125 220.102 0 173.824 137.088 314.397 305.778 314.397 168.676 0 305.778-140.573 305.778-314.397 0-51.484-29.91-127.715-84.125-220.103-22.812-38.883-49.45-79.843-79.132-122.169A2819.456 2819.456 0 0 0 557.24 149.39a2847.346 2847.346 0 0 0-27.591-33.607 2826.101 2826.101 0 0 0-27.563 33.607zm-343.21 494.336c0-66.204 33.407-151.338 93.055-253.013 23.766-40.505 51.343-82.916 81.977-126.578a2883.413 2883.413 0 0 1 117.618-155.62 2798.25 2798.25 0 0 1 49.693-59.79l3.982-4.58 24.462-27.96 24.462 27.96 3.982 4.58c3.144 3.684 6.813 7.965 10.923 12.829 11.705 13.852 24.747 29.61 38.77 46.962a2883.413 2883.413 0 0 1 117.618 155.62c30.634 43.661 58.197 86.072 81.977 126.577 59.648 101.675 93.056 186.809 93.056 253.013 0 209.366-165.832 379.42-370.788 379.42-204.97 0-370.788-170.054-370.788-379.42z"/><path d="M529.664 910.194c-142.876 0-258.688-116.224-258.688-259.598 0-143.36 134.443-70.77 258.688 0 124.757 71.068 258.688-143.36 258.688 0 0 143.374-115.826 259.598-258.702 259.598zM724.92 180.821c0-23.651 15.66-51.754 41.814-84.11a512.213 512.213 0 0 1 39.595-43.435l11.235-10.766 11.25 10.766 3.527 3.456a512.2 512.2 0 0 1 36.068 39.98 315.69 315.69 0 0 1 23.438 32.668c11.762 19.1 18.375 36.138 18.375 51.441 0 51.584-41.443 93.469-92.643 93.469s-92.658-41.885-92.658-93.469zm67.101-63.673c-21.589 26.696-34.588 50.034-34.588 63.673 0 33.707 26.965 60.957 60.146 60.957 33.166 0 60.131-27.25 60.131-60.957 0-7.95-4.665-19.982-13.554-34.432a284.174 284.174 0 0 0-21.02-29.24 480.213 480.213 0 0 0-25.4-28.829 392.647 392.647 0 0 0-25.715 28.828zM113.778 329.06c0-17.693 11.065-37.547 29.582-60.46a353.422 353.422 0 0 1 27.378-30.022l11.235-10.78 11.25 10.78a353.422 353.422 0 0 1 27.364 30.009c6.3 7.793 11.804 15.402 16.327 22.755 8.462 13.753 13.27 26.14 13.27 37.718 0 37.93-30.493 68.75-68.196 68.75-37.718 0-68.21-30.82-68.21-68.75zm54.87-40.022c-13.939 17.252-22.358 32.342-22.358 40.022 0 20.053 16.014 36.252 35.698 36.252 19.669 0 35.697-16.2 35.697-36.252 0-4.224-2.887-11.62-8.462-20.694a188.203 188.203 0 0 0-13.91-19.342 312.462 312.462 0 0 0-13.34-15.374 312.462 312.462 0 0 0-13.326 15.388z"/></svg>
