<svg class="icon" viewBox="0 0 1024 1024" xmlns="http://www.w3.org/2000/svg" width="128" height="128"><defs><style/></defs><path d="M831.937 825.418H191.06a40.118 40.118 0 0 1-40.118-40.117V533.563a361.058 361.058 0 1 1 721.113 0v251.738a40.118 40.118 0 0 1-40.118 40.117zm-600.76-80.235H791.82v-211.62c0-154.452-125.368-280.823-280.823-280.823s-279.82 125.368-279.82 280.823zM872.055 1024h-720.11a94.276 94.276 0 0 1 0-188.552h720.11a94.276 94.276 0 0 1 0 188.552zm-720.11-108.317a14.041 14.041 0 0 0 0 28.082h720.11a14.041 14.041 0 0 0 0-28.082z"/><path d="M512 158.464a40.118 40.118 0 0 1-40.118-40.117v-78.23a40.118 40.118 0 0 1 80.236 0v78.23A40.118 40.118 0 0 1 512 158.464zm189.555 37.109a40.118 40.118 0 0 1-35.103-59.173l37.11-69.203a40.383 40.383 0 1 1 71.208 38.112L737.66 174.51a40.118 40.118 0 0 1-36.106 21.062zM841.967 313.92a40.118 40.118 0 0 1-29.086-67.197l53.156-57.168a40.118 40.118 0 0 1 59.174 54.159l-53.156 57.167a40.118 40.118 0 0 1-30.088 13.039zm-518.52-118.347a40.118 40.118 0 0 1-35.102-21.062l-37.109-69.202a40.383 40.383 0 0 1 71.209-38.112l37.108 69.203a40.118 40.118 0 0 1-35.102 59.173zM182.034 313.92a40.118 40.118 0 0 1-29.085-13.039l-53.156-57.167a40.118 40.118 0 0 1 59.174-54.159l53.155 57.168a40.118 40.118 0 0 1-29.085 67.197zm256.753 412.207a40.118 40.118 0 0 1-28.083-68.2l134.394-135.396H381.618a40.118 40.118 0 0 1-28.082-68.2l153.45-153.45a40.423 40.423 0 0 1 57.167 57.168l-85.25 85.25h162.476a40.118 40.118 0 0 1 28.082 68.2L466.868 714.092a40.118 40.118 0 0 1-28.082 12.035z"/></svg>
